<svg id="Layer_1" data-name="Layer 1" xmlns="http://www.w3.org/2000/svg" viewBox="0 0 527.68596 128"><title>switch-bsc</title><rect x="4.23302" y="53.78104" width="20.43797" height="20.43797" transform="translate(-41.02158 28.96368) rotate(-44.99938)" fill="#f0b90b"/><polygon points="64 28.903 88.775 53.677 103.226 39.226 64 0 24.775 39.226 39.226 53.677 64 28.903" fill="#f0b90b"/><rect x="103.32996" y="53.78121" width="20.43757" height="20.43757" transform="translate(-11.99766 99.03453) rotate(-44.99921)" fill="#f0b90b"/><polygon points="64 99.097 39.226 74.323 24.775 88.774 64 128 103.226 88.774 88.775 74.323 64 99.097" fill="#f0b90b"/><rect x="53.78144" y="53.78122" width="20.43761" height="20.43761" transform="translate(-26.50961 63.99925) rotate(-44.99941)" fill="#f0b90b"/><path d="M180.92094,34.631c4.01-2.25,7.39-5.78,7.39-12.12v-0.16c0-8.83-7.07-14.53-18.54-14.53h-26.08v56.18h26.72c12.68,0,21.02-5.14,21.02-15.41v-0.16C191.431,40.891,187.42094,37.121,180.92094,34.631Zm-25.2-15.97h12.2c5.22,0,8.11,2.08,8.11,5.78v0.16c0,4.17-3.45,5.93-8.91,5.93h-11.4V18.661Zm23.44,28.41c0,4.17-3.29,6.09-8.75,6.09h-14.69V40.811h14.29c6.34,0,9.15,2.32,9.15,6.09v0.17Z" fill="#f0b90b"/><rect x="204.99337" y="7.82401" width="12.359" height="56.17599" fill="#f0b90b"/><polygon points="283.786 64 283.786 7.824 271.588 7.824 271.588 42.413 245.265 7.824 233.87 7.824 233.87 64 246.068 64 246.068 28.288 273.274 64 283.786 64" fill="#f0b90b"/><path d="M328.17094,7.421h-11.4l-24.07,56.58h12.6l5.13-12.6h23.76l5.13,12.6h12.92ZM314.851,40.491l7.46-18.22,7.46,18.22h-14.92Z" fill="#f0b90b"/><polygon points="411.154 64 411.154 7.824 398.955 7.824 398.955 42.413 372.633 7.824 361.237 7.824 361.237 64 373.435 64 373.435 28.288 400.641 64 411.154 64" fill="#f0b90b"/><path d="M474.957,54.932l-7.864-7.945c-4.414,4.013-8.346,6.581-14.766,6.581-9.631,0-16.292-8.025-16.292-17.656v-0.16c0-9.631,6.822-17.495,16.292-17.495,5.617,0,10.031,2.407,14.365,6.34l7.864-9.069c-5.216-5.136-11.557-8.667-22.149-8.667-17.255,0-29.292,13.081-29.292,29.051v0.16c0,16.131,12.279,28.891,28.81,28.891C462.759,64.963,469.179,61.112,474.957,54.932Z" fill="#f0b90b"/><polygon points="527.686 64 527.686 53.006 497.191 53.006 497.191 41.209 523.674 41.209 523.674 30.214 497.191 30.214 497.191 18.819 527.285 18.819 527.285 7.824 484.913 7.824 484.913 64 527.686 64" fill="#f0b90b"/><path d="M149.27025,91.13c0-2.512,2.24442-4.489,6.092-4.489,3.4201,0,6.7868,1.336,10.1534,3.848l3.527-4.97a20.73473,20.73473,0,0,0-13.5735-4.703c-7.428,0-12.77191,4.382-12.77191,10.902,0,6.947,4.48887,9.298,12.45131,11.222,6.947,1.603,8.4433,3.046,8.4433,5.771,0,2.886-2.5651,4.756-6.6264,4.756-4.6492,0-8.22961-1.763-11.81-4.863l-3.95448,4.703a23.04174,23.04174,0,0,0,15.6042,5.985c7.8555,0,13.3597-4.168,13.3597-11.222,0-6.252-4.1148-9.085-12.0238-11.008C150.98029,95.352,149.27025,94.069,149.27025,91.13Z" fill="#f0b90b"/><path d="M208.08768,91.932v26.826h6.573V81.351h-7.0005l-11.3825,17.688-11.3824-17.688h-7.0005v37.407h6.4661V92.038l11.7031,17.528h0.2137Z" fill="#f0b90b"/><path d="M243.633,81.083h-6.0916l-16.4592,37.675h6.7333l3.8476-9.031H249.351l3.795,9.031h6.947Zm3.314,22.819h-12.8792l6.4127-14.963Z" fill="#f0b90b"/><path d="M298.25,118.758l-10.1-14.161c5.237-1.443,8.924-5.184,8.924-11.383,0-7.321-5.29-11.863-13.894-11.863H266.507v37.407h6.573V105.719h8.23l9.191,13.039h7.749Zm-7.855-25.17c0,3.848-2.993,6.306-7.696,6.306H273.08V87.336h9.566C287.509,87.336,290.395,89.473,290.395,93.588Z" fill="#f0b90b"/><path d="M320.787,87.443H332.65V81.351H302.297v6.092H314.16v31.315h6.627V87.443Z" fill="#f0b90b"/><path d="M388.186,112.773l-4.222-4.275c-3.206,2.992-6.145,4.863-10.741,4.863-7.161,0-12.344-5.986-12.344-13.36,0-7.375,5.183-13.253,12.344-13.253,4.275,0,7.482,1.87,10.474,4.649l4.222-4.863a19.49889,19.49889,0,0,0-14.642-5.825c-11.329,0-19.292,8.711-19.292,19.399,0,10.794,8.123,19.291,19.024,19.291C380.01,119.399,384.285,116.834,388.186,112.773Z" fill="#f0b90b"/><path d="M419.516,102.993v15.765h6.573V81.351h-6.573v15.55H401.668V81.351h-6.573v37.407h6.573V102.993h17.848Z" fill="#f0b90b"/><path d="M455.041,81.083h-6.092l-16.46,37.675h6.734l3.847-9.031h17.689l3.794,9.031H471.5Zm3.313,22.819H445.475l6.413-14.963Z" fill="#f0b90b"/><path d="M478.289,81.351v37.407h6.573V81.351h-6.573Z" fill="#f0b90b"/><path d="M521.007,107.215l-20.04-25.864h-6.092v37.407h6.466V92.145l20.628,26.613h5.504V81.351h-6.466v25.864Z" fill="#f0b90b"/></svg>